<?xml version="1.0" encoding="utf-8"?>
<!-- Generator: Adobe Illustrator 14.0.0, SVG Export Plug-In . SVG Version: 6.00 Build 43363)  -->
<!DOCTYPE svg PUBLIC "-//W3C//DTD SVG 1.1//EN" "http://www.w3.org/Graphics/SVG/1.1/DTD/svg11.dtd">
<svg version="1.1" id="レイヤー_1" xmlns="http://www.w3.org/2000/svg" xmlns:xlink="http://www.w3.org/1999/xlink" x="0px"
	 y="0px" width="64px" height="64px" viewBox="0 0 64 64" enable-background="new 0 0 64 64" xml:space="preserve">
<radialGradient id="SVGID_1_" cx="1539.5293" cy="-2216.5674" r="25.9382" gradientTransform="matrix(1 0 0 -0.9995 -1507.4941 -2182.6436)" gradientUnits="userSpaceOnUse">
	<stop  offset="0.724" style="stop-color:#000000"/>
	<stop  offset="0.819" style="stop-color:#000000;stop-opacity:0.4"/>
	<stop  offset="1" style="stop-color:#000000;stop-opacity:0"/>
</radialGradient>
<path fill="url(#SVGID_1_)" d="M57.973,32.814c0,14.314-11.615,25.927-25.937,25.927c-14.323,0-25.938-11.608-25.938-25.927
	c0-14.319,11.615-25.925,25.938-25.925C46.359,6.89,57.973,18.495,57.973,32.814z"/>
<linearGradient id="SVGID_2_" gradientUnits="userSpaceOnUse" x1="1539.5293" y1="-2190.3135" x2="1539.5293" y2="-2238.564" gradientTransform="matrix(1 0 0 -1 -1507.4941 -2183)">
	<stop  offset="0" style="stop-color:#37BDA8"/>
	<stop  offset="1" style="stop-color:#0D7D6E"/>
</linearGradient>
<path fill="url(#SVGID_2_)" d="M56.162,30.847c0,13.323-10.807,24.124-24.127,24.124c-13.323,0-24.126-10.801-24.126-24.124
	c0-13.325,10.804-24.127,24.126-24.127S56.162,17.521,56.162,30.847z"/>
<path fill="#0E9C76" d="M55.055,30.846c0,12.712-10.309,23.018-23.02,23.018c-12.712,0-23.019-10.306-23.019-23.018
	c0-12.714,10.307-23.02,23.019-23.02C44.746,7.827,55.055,18.132,55.055,30.846z"/>
</svg>
